<?xml version="1.0" encoding="UTF-8"?><svg id="Layer_1" xmlns="http://www.w3.org/2000/svg" xmlns:xlink="http://www.w3.org/1999/xlink" viewBox="0 0 24 24"><defs><clipPath id="clippath"><rect width="24" height="24" fill="none"/></clipPath></defs><g clip-path="url(#clippath)"><path d="m23.04,12c-.2-.3-4.1-8-11-8S1.14,11.7,1.04,12c-.1.3,0,.4,0,.5.2.3,4.1,8,11,8s10.9-7.6,11-8c.1-.4,0-.4,0-.5Zm-11,7.3c-5.5,0-9.1-5.7-9.8-7,.7-1.3,4.3-7,9.8-7s9.1,5.7,9.8,7c-.7,1.3-4.3,7-9.8,7Zm0-10.5c-1.9,0-3.5,1.6-3.5,3.5s1.6,3.5,3.5,3.5,3.5-1.6,3.5-3.5-1.6-3.5-3.5-3.5Zm0,5.7c-1.2,0-2.3-1-2.3-2.3s1-2.3,2.3-2.3,2.3,1,2.3,2.3-1,2.3-2.3,2.3Z" fill="#1c3137"/></g></svg>