<?xml version="1.0" encoding="UTF-8"?><svg id="Layer_1" xmlns="http://www.w3.org/2000/svg" xmlns:xlink="http://www.w3.org/1999/xlink" viewBox="0 0 24 24"><defs><clipPath id="clippath"><rect width="24" height="24" fill="none"/></clipPath></defs><g clip-path="url(#clippath)"><path d="m1.13,1.07c.23-.23.61-.23.85,0l8.4,8.4s0,0,0,0l4.1,4.1s0,0,0,0l3.59,3.59h.01s4.89,4.91,4.89,4.91c.23.23.23.61,0,.85-.23.23-.61.23-.85,0l-4.54-4.54c-1.62,1.09-3.57,1.72-5.61,1.82,0,0-.02,0-.03,0-3.59,0-6.36-2.03-8.2-3.99-.92-.98-1.63-1.96-2.11-2.7-.24-.37-.42-.68-.54-.89-.06-.11-.11-.19-.14-.25-.02-.03-.03-.05-.04-.07v-.02s-.01,0-.01,0h0s0,0,.54-.27l-.54.27c-.09-.18-.08-.38,0-.56,1.15-2.1,2.64-3.93,4.49-5.5L1.13,1.92c-.23-.23-.23-.61,0-.85Zm12.05,12.9l-3.18-3.18c-.06.11-.11.22-.16.35-.13.34-.19.67-.19.86,0,1.27,1.03,2.3,2.3,2.3.45,0,.88-.12,1.22-.33Zm-4.05-4.05c-.18.25-.31.53-.41.79-.17.45-.26.92-.26,1.29,0,1.93,1.57,3.5,3.5,3.5.73,0,1.49-.21,2.09-.66l2.68,2.68c-1.39.88-3.05,1.4-4.78,1.48-3.11,0-5.58-1.77-7.31-3.61-.86-.92-1.53-1.84-1.97-2.53-.22-.34-.39-.63-.5-.83l-.02-.03c1.07-1.88,2.44-3.52,4.13-4.94l2.86,2.86Zm2.92-4.92c-.71,0-1.23,0-1.84.18-.32.09-.65-.09-.74-.41-.09-.32.09-.65.41-.74.78-.22,1.45-.22,2.14-.22h.03c3.59,0,6.36,2.03,8.2,3.99.92.98,1.63,1.96,2.11,2.7.24.37.42.68.54.89.06.11.11.19.14.25.02.03.03.05.04.07v.02s.01,0,.01,0h0s0,0-.54.27l.54-.27c.09.18.08.38-.01.56-.62,1.14-1.35,2.18-2.18,3.11-.22.25-.6.27-.85.05-.25-.22-.27-.6-.05-.85.7-.79,1.32-1.66,1.86-2.61l-.02-.03c-.11-.2-.28-.48-.5-.83-.45-.69-1.11-1.61-1.97-2.53-1.74-1.85-4.21-3.61-7.33-3.61Z" fill="#1c3137" fill-rule="evenodd"/></g></svg>