<?xml version="1.0" encoding="UTF-8"?><svg id="Layer_1" xmlns="http://www.w3.org/2000/svg" xmlns:xlink="http://www.w3.org/1999/xlink" viewBox="0 0 24 24"><defs><clipPath id="clippath"><rect width="24" height="24" fill="none"/></clipPath><clipPath id="clippath-1"><rect width="24" height="24" fill="none"/></clipPath></defs><g clip-path="url(#clippath)"><g clip-path="url(#clippath-1)"><g><path d="m12,12.6c3.09,0,5.6-2.51,5.6-5.6S15.09,1.4,12,1.4s-5.6,2.51-5.6,5.6,2.51,5.6,5.6,5.6Zm0-10c2.43,0,4.4,1.97,4.4,4.4s-1.97,4.4-4.4,4.4-4.4-1.97-4.4-4.4,1.97-4.4,4.4-4.4Z" fill="#1c3137"/><path d="m12,14.4c-5.07,0-9.19,3.41-9.19,7.6,0,.33.27.6.6.6h17.18c.33,0,.6-.27.6-.6,0-4.19-4.12-7.6-9.19-7.6Zm-7.96,7c.38-3.25,3.8-5.8,7.96-5.8s7.58,2.55,7.96,5.8H4.04Z" fill="#1c3137"/></g></g></g></svg>